<svg xmlns="http://www.w3.org/2000/svg" xml:space="preserve" width="2000" height="1500" data-id="lg_SWP16v2BS7chZo7QAP" data-version="1" viewBox="0 0 2000 1500"><path fill="#242424" stroke="transparent" d="M0 0h2000v1500H0z"/><g data-padding="20"><g transform="translate(-1656.53 -1254.458)scale(2.58736)"><rect width="478.81" height="131.145" x="315.233" y="266.037" fill="none" stroke="#fff" paint-order="stroke" rx="0" ry="0" transform="translate(390.858 390.01)scale(1.13)" vector-effect="non-scaling-stroke"/><rect width="478.81" height="131.145" x="315.233" y="266.037" fill="none" stroke="#fff" paint-order="stroke" rx="0" ry="0" transform="translate(409.13 409.978)scale(1.13)" vector-effect="non-scaling-stroke"/><g transform="translate(403.9 400.25)"><filter id="a" width="140%" height="140%" x="-20%" y="-20%"><feGaussianBlur in="SourceAlpha"/><feOffset result="oBlur"/><feFlood flood-color="#f75cff" flood-opacity="1"/><feComposite in2="oBlur" operator="in"/><feMerge><feMergeNode/><feMergeNode in="SourceGraphic"/></feMerge></filter><g filter="url(#a)"><rect width="490.171" height="80.23" x="381.656" y="334.604" fill="none" rx="0" ry="0" transform="translate(-2.95)"/><path fill="#fff" d="m411.37 346.819-.36 4.26h-20.66v18.67h19.17l-.35 4.26h-18.82v18.25h22.44l-.36 4.26h-26.91v-49.7Zm30.39 50.06-9.52-15.13-9.44 14.77h-5.33l12.29-18.67-10.79-16.83 5.46-.35 8.66 13.84 8.45-13.49h5.33l-11.29 17.47 11.71 18.03Zm36.92-5.33q-2.35 2.34-5.22 3.51-2.88 1.18-4.94 1.32t-4.04.14q-1.99 0-4.33-.35v17.75l-4.62.35v-51.4q1.56-.5 4.79-1.49 3.23-1 6.89-1t6.32.6q2.66.61 4.93 2.31 5.33 4.12 5.33 13.63 0 9.52-5.11 14.63m-18.53-25.84v26.83q2.13.5 4.54.5 6.96 0 10.72-4.12 3.76-4.11 3.76-11.57 0-7.45-3.83-10.65-2.7-2.2-6.92-2.2-4.23 0-8.27 1.21m32.02 21.72q-1.28-3.41-1.28-7.95 0-8.73 4.9-13.74 4.9-5 12.28-5 11.57 0 15.19 9.37 1.35 3.41 1.35 7.95 0 8.73-4.9 13.74-4.89 5-12.28 5-11.57 0-15.26-9.37m3.33-8.45q0 6.54 3.38 10.12 3.37 3.59 8.69 3.59 5.33 0 8.88-3.8t3.55-10.33-3.34-10.12-8.7-3.59-8.91 3.8-3.55 10.33m87.05-18.81q0 10.22-7.03 13.7l10.72 22.65h-5.18l-10.08-21.16q-2.56.43-5.61.43h-5.47v20.73h-4.83v-49.7h10.3q8.66 0 12.64 2.7 4.54 3.05 4.54 10.65m-17.54-9.44h-5.11v21.15h5.11q6.32 0 9.52-2.55 3.19-2.56 3.19-8.88 0-8.09-7.38-9.37-2.35-.35-5.33-.35m32.95 28.32v1.14q0 12.5 11.92 12.5 5.05 0 9.23-1.35 1.07-.36 1.5-.57l1.06 3.76q-2.48 1.49-9.02 2.13-1.84.14-3.9.14-5.97 0-9.94-2.98-5.47-4.04-5.47-13.49 0-9.44 4.94-14.52 4.93-5.07 11.96-5.07t10.58 4.54q2.7 3.62 2.7 9.59 0 1.42-.15 2.98h-25.34q-.07.57-.07 1.2m12.56-13.91q-4.4 0-7.52 2.66-3.13 2.66-4.33 6.85h20.66q-.36-7.88-6.11-9.16-1.28-.35-2.7-.35m24.42-4.47v4.26q5.32-3.91 10.08-4.12 4.33 0 6.67 1.06 2.35 1.07 3.87 3.02 1.53 1.95 1.53 5.5v26.13h-4.62v-24.92q0-2.63-1.13-4.05-2.27-2.62-6.96-2.62-4.47.21-9.44 2.91v28.68h-4.62v-35.5Zm46.8 30.74.85 3.83q-1.28 1.28-4.62 1.28-4.68 0-6.32-2.41-2.76-2.63-2.76-7.1v-21.87h-3.98l.64-4.12h3.34v-7.03l4.61-.42v7.45h8.24v4.12h-8.24v23q0 4.12 4.26 4.12 1.85 0 3.98-.85m64.03 5.11-4.69-13.13h-21.87l-4.54 13.13h-4.61l17.96-49.7h4.33l18.6 49.7Zm-15.83-44.3-9.52 27.62h19.38Zm81.15 8.87-.36-9.02q-3.62-1.42-7.59-1.42-8.03 0-12.96 5.9-4.94 5.89-4.94 17.25t5.19 15.9q3.55 3.2 9.87 3.2 4.04 0 8.13-.92 4.08-.93 5.57-1.78l.99 3.48q-3.12 2.06-10.93 2.84-2.27.28-4.79.28t-5.93-.81q-3.41-.82-6.32-3.3-6.6-5.61-6.6-18.68 0-13.06 6.21-20.2 6.21-7.13 16.15-7.13 5.54 0 9.52 2.2 1.49.78 2.34 1.7v10.3Zm11.65 7.18-1.28-3.41q7.74-3.83 13.57-4.04 4.61 0 7.13 1.17t4.08 3.26q1.57 2.1 1.57 5.86v25.42h-4.62v-2.7q-9.73 2.98-12.5 2.98h-.21q-6.39 0-8.73-3.9-.85-1.42-.96-2.77t-.11-2.27q0-2.56 1.99-4.58t4.76-2.73q4.68-1.21 15.76-2.13v-5.76q0-7.73-8.09-7.73-5.68 0-12.36 3.33m2.27 20.17q0 5.11 7.03 5.11 5.61 0 11.15-2.42v-10.15q-11.08 1.56-13.7 2.42-4.48 1.42-4.48 5.04m50.26-26.71-1.84 4.26q-1.14-.64-2.42-.64t-1.42.07q-2.7 0-5.43 1.95-2.73 1.96-4.65 4.37v24.78h-4.61v-35.5l4.61-.35v7.95q2.63-3.34 4.47-4.69 3.41-2.55 6.54-2.7.42-.07 1.56-.07 1.13 0 3.19.57"/></g></g></g><path fill="transparent" stroke="transparent" stroke-width="2.683" d="M250 524.597h1500v450.806H250z"/></g></svg>